<svg width="717" height="717" viewBox="0 0 717 717" fill="none" xmlns="http://www.w3.org/2000/svg">
    <g clip-path="url(#clip0_144_343)">
        <rect id="icon-bg" width="717" height="717" rx="358.5" fill="white"/>
        <mask id="mask0_144_343" style="mask-type:alpha" maskUnits="userSpaceOnUse" x="6" y="-2" width="721" height="721">
            <path d="M366.355 718.312C565.073 718.312 726.167 557.219 726.167 358.5C726.167 159.781 565.073 -1.31238 366.355 -1.31238C167.636 -1.31238 6.54248 159.781 6.54248 358.5C6.54248 557.219 167.636 718.312 366.355 718.312Z" fill="#D9D9D9"/>
        </mask>
        <g mask="url(#mask0_144_343)">
        <path id="icon-stroke" fill-rule="evenodd" clip-rule="evenodd" d="M-55.7688 358.501V783.283H366.334H788.438V358.501V-66.282H366.334H-55.7688V358.501ZM399.05 -25.3976C413.408 -23.8814 417.723 -23.3548 420.605 -22.7665C422.263 -22.4275 427.69 -21.5163 432.665 -20.7411C442.809 -19.1606 454.853 -16.4658 468.511 -12.7198C469.614 -12.417 472.781 -11.5487 475.546 -10.7909C497.755 -4.70053 533.853 10.6942 555.952 23.4986C605.145 52.0059 643.818 86.1622 676.424 129.898C682.399 137.915 693.489 154.331 696.722 159.946C697.601 161.477 700.18 165.927 702.449 169.838C719.022 198.393 736.001 241.381 742.43 271.065C742.984 273.645 744.049 278.469 744.794 281.785C745.534 285.102 746.633 290.981 747.23 294.85C747.827 298.72 748.744 304.448 749.274 307.58C753.109 330.397 753.109 391.964 749.274 414.781C748.744 417.914 747.827 423.642 747.225 427.511C746.628 431.38 745.525 437.26 744.775 440.576C744.025 443.893 742.965 448.698 742.42 451.256C736.035 481.213 719.299 523.448 701.957 553.385C699.956 556.838 697.601 560.907 696.722 562.431C668.161 611.811 618.776 660.871 564.315 693.979C538.299 709.793 504.69 724.637 476.549 732.747C472.126 734.017 467.001 735.503 465.158 736.038C463.317 736.572 459.699 737.499 457.12 738.096C454.54 738.693 450.169 739.72 447.405 740.379C444.641 741.038 438.159 742.237 432.999 743.044C427.84 743.846 422.263 744.787 420.605 745.126C417.724 745.719 413.426 746.244 399.05 747.758C390.643 748.646 339.345 748.646 330.938 747.758C316.565 746.244 312.265 745.719 309.384 745.126C307.726 744.787 303.052 744.009 298.999 743.398C294.945 742.791 288.915 741.683 285.598 740.943C282.282 740.202 277.458 739.147 274.878 738.598C242.679 731.739 197.269 713.184 165.674 693.979C127.234 670.615 89.6483 638.261 65.5022 607.756C64.2122 606.128 62.392 603.873 61.4564 602.751C33.7934 569.509 4.85055 514.173 -6.89465 472.067C-13.3287 449.001 -15.1458 440.599 -19.2844 414.781C-21.3694 401.775 -21.7594 395.001 -22.0817 366.206C-22.432 334.888 -21.6575 319.958 -18.9205 305.235C-18.5775 303.393 -17.8144 298.72 -17.2248 294.85C-16.6345 290.981 -15.5377 285.102 -14.7873 281.785C-14.0369 278.469 -12.9729 273.645 -12.4235 271.065C7.95468 175.422 75.7484 83.0439 165.674 28.3829C197.327 9.14243 242.095 -9.1554 274.878 -16.2528C277.458 -16.8109 282.282 -17.8681 285.598 -18.6011C288.915 -19.3348 294.945 -20.4322 298.999 -21.0406C303.052 -21.649 307.726 -22.4175 309.384 -22.7484C312.139 -23.2979 315.558 -23.726 330.154 -25.3501C337.469 -26.1635 391.441 -26.201 399.05 -25.3976ZM340.203 83.7589C334.819 86.6069 335.202 83.7704 334.994 122.393C334.831 152.659 334.937 157.075 335.864 158.868C338.873 164.687 348.291 165.179 351.997 159.711C353.896 156.909 353.978 89.8485 352.087 86.9608C349.511 83.0301 344.258 81.6149 340.203 83.7589ZM442.806 98.3728C440.364 99.6428 440.067 100.096 436.11 108.589C434.652 111.722 432.194 116.998 430.649 120.314C429.105 123.631 426.99 128.153 425.951 130.364C410.77 162.663 410.392 163.803 413.402 168.226C415.76 171.692 418.299 173.244 421.605 173.244C426.375 173.244 427.146 172.197 435.174 154.82C438.633 147.333 441.279 141.633 443.73 136.394C444.937 133.815 446.901 129.594 448.094 127.014C449.288 124.435 451.613 119.475 453.262 115.991C456.891 108.324 456.999 104.617 453.697 101.105C450.154 97.3364 446.542 96.4299 442.806 98.3728ZM237.284 99.8592C228.229 103.888 228.658 106.421 243.877 138.825C259.8 172.726 259.442 172.038 262.004 173.601C268.964 177.844 278.664 167.592 274.554 160.338C274.192 159.698 268.585 147.726 262.094 133.734C246.43 99.9647 247.027 101.095 244.105 99.7015C241.156 98.2955 240.779 98.3041 237.284 99.8592ZM522.409 126.324C521.468 126.835 519.391 129.009 517.791 131.154C516.191 133.299 513.177 137.316 511.085 140.079C508.998 142.843 504.914 148.27 502.015 152.139C499.111 156.009 495.892 160.23 494.856 161.52C490.061 167.507 474.185 189.093 473.249 190.909C469.576 198.005 480.012 205.535 487.286 201.039C488.551 200.259 494.646 192.836 501.724 183.451C539.264 133.697 537.697 135.995 536.909 131.795C535.925 126.537 527.715 123.438 522.409 126.324ZM154.351 128.264C146.475 133.032 146.673 133.505 168.683 162.581C175.868 172.073 185.387 184.688 189.835 190.612C200.662 205.034 205.441 207.309 211.854 201.092C217.165 195.945 217.138 195.886 197.557 169.895C189.229 158.84 181.884 149.041 181.237 148.119C180.59 147.198 179.083 145.203 177.889 143.687C176.695 142.17 173.536 138.074 170.87 134.586C164.444 126.179 160.37 124.62 154.351 128.264ZM329.149 213.44C308.042 214.367 294.327 215.313 284.259 216.536C280.942 216.94 276.118 217.525 273.538 217.838C251.322 220.527 236.243 223.808 226.973 227.969C224.946 228.878 222.233 230.038 220.943 230.546C219.653 231.054 217.153 232.313 215.386 233.345C213.619 234.376 212.015 235.22 211.821 235.22C208.855 235.22 195.599 248.095 192.572 253.917C187.732 263.223 188.112 249.556 188.121 414.215C188.13 576.535 187.848 565.43 192.155 573.512C204.206 596.122 236.643 614.753 279.804 623.861C281.407 624.2 283.871 624.788 285.279 625.165C288.967 626.158 298.841 627.453 318.429 629.511C330.65 630.796 359.292 630.801 373.369 629.521C397.274 627.353 405.382 626.34 413.732 624.496C416.959 623.78 421.71 622.729 424.289 622.156C429.05 621.101 445.174 615.985 446.4 615.14C446.768 614.887 449.482 613.664 452.43 612.418C455.378 611.171 458.845 609.504 460.135 608.711C461.424 607.923 464.608 606.046 467.212 604.537C480.408 596.91 491.823 585.896 496.198 576.587C500.616 567.174 500.554 567.503 500.678 553.347C500.831 535.809 500.654 536.062 514.887 533.001C523.684 531.105 527.811 530.016 528.809 529.323C529.177 529.07 531.14 528.33 533.165 527.68C567.906 516.58 592.322 482.474 600.799 433.206C601.181 430.995 602.098 426.021 602.843 422.152C606.717 401.963 607.247 366.546 603.861 354.146C598.454 334.361 593.382 324.727 582.077 312.74C566.574 296.309 547.976 289.243 517.509 288.213L504.193 287.763L502.598 285.909C500.878 283.911 500.969 284.912 500.678 264.03C500.492 250.763 495.023 240.957 484.401 234.843C482.662 233.843 480.785 232.664 480.236 232.225C478.388 230.754 466.28 225.921 459.99 224.142C451.886 221.851 439.896 219.599 426.3 217.816C424.089 217.527 421.526 217.108 420.605 216.885C417.289 216.083 388.52 213.869 376.384 213.481C369.567 213.263 360.673 212.966 356.619 212.821C352.566 212.676 340.204 212.954 329.149 213.44ZM390.789 234.523C395.211 234.89 401.392 235.483 404.524 235.841C407.657 236.198 413.084 236.804 416.584 237.187C436.033 239.314 435.093 239.154 453.1 243.4C467.13 246.708 474.309 251.407 477.055 259.078C478.784 263.913 479.553 271.421 479.911 286.889C480.418 308.834 481.048 309.381 502.345 306.24C560.809 297.619 592.212 334.772 584.183 403.056C582.459 417.727 581.432 424.614 580.038 430.861C579.259 434.362 578.466 437.98 578.285 438.901C569.143 484.92 546.17 507.73 502.392 514.245C498.552 514.813 494.431 515.281 493.237 515.281C490.806 515.281 485.237 517.474 483.36 519.169C480.336 521.906 480.05 523.964 479.897 544.091C479.735 564.948 479.563 566.056 475.598 571.816C469.318 580.948 450.636 592.583 433.335 598.142C419.976 602.436 420.395 602.321 409.885 604.298C375.067 610.832 323.412 611.634 294.846 606.085C277.733 602.756 272.4 601.605 269.854 600.692C268.564 600.229 265.097 599.174 262.148 598.352C259.2 597.526 256.487 596.628 256.118 596.356C255.75 596.083 253.718 595.224 251.603 594.445C234.741 588.231 214.815 573.521 210.155 563.845L208.548 560.506V414.111V267.715L210.558 264.078C218.064 250.499 244.468 241.348 289.954 236.562C293.086 236.233 298.903 235.621 302.88 235.204C321.37 233.263 370.966 232.878 390.789 234.523ZM332.834 242.309C331.913 242.457 325.732 242.878 319.099 243.244C299.385 244.334 280.426 246.197 270.858 247.984C256.78 250.614 252.353 251.669 245.829 253.947C231.233 259.043 225.641 263.732 225.636 270.879C225.626 282.423 235.537 286.889 263.823 288.09C289.626 289.185 309.009 290.137 320.325 290.863C339.805 292.113 362.557 291.521 399.164 288.812C404.139 288.444 411.526 287.964 415.58 287.747C421.855 287.41 429.271 286.217 442.38 283.433C452.832 281.215 464.141 275.21 465.927 270.932C469.738 261.808 462.894 253.981 447.739 250.139C433.956 246.645 422.233 245.11 394.809 243.204C385.645 242.567 335.708 241.846 332.834 242.309ZM508.038 330.16C490.175 332.551 482.209 336.439 480.246 343.721C479.754 345.549 479.587 368.628 479.715 417.598L479.902 488.817L481.573 491.797C488.504 504.129 521.349 497.524 538.428 480.363C543.811 474.952 555.273 458.35 555.273 455.964C555.273 455.825 556.171 453.814 557.265 451.494C558.965 447.897 561.315 441.474 563.961 433.206C568.546 418.897 569.291 391.827 565.7 370.199C562.882 353.227 552.713 339.678 538.858 334.442C536.651 333.607 534.144 332.646 533.294 332.308C528.642 330.46 514.677 329.273 508.038 330.16ZM525.026 351.196C543.62 357.073 551.543 379.869 546.5 412.978C541.38 446.612 519.324 477.407 502.111 474.952L500.668 474.746L500.472 416.456C500.344 377.865 500.511 357.357 500.969 355.771C501.829 352.783 504.088 351.68 512.394 350.192C514.925 349.74 522.261 350.323 525.026 351.196Z" fill="black"/>
        </g>
    </g>
    <defs>
        <clipPath id="clip0_144_343">
            <rect width="717" height="717" rx="358.5" fill="white"/>
        </clipPath>
    </defs>
    <style>
        #icon-stroke { fill: #000; }
        #icon-bg { fill: #fff; }
        @media (prefers-color-scheme: dark) {
            #icon-stroke { fill: #FFF; }
            #icon-bg { fill: #000; }
        }
    </style>
</svg>